solid OpenSCAD_Model
  facet normal 1 0 -0
    outer loop
      vertex 149.875 15 11.1712
      vertex 149.875 15 11.2673
      vertex 149.875 14.8486 11.1712
    endloop
  endfacet
  facet normal 0 -1 0
    outer loop
      vertex 142.375 14.4827 9.25355
      vertex 149.875 14.4827 9.74645
      vertex 142.375 14.4827 9.74645
    endloop
  endfacet
  facet normal 0 -1 -0
    outer loop
      vertex 149.875 14.4827 9.74645
      vertex 142.375 14.4827 9.25355
      vertex 149.875 14.4827 9.25355
    endloop
  endfacet
  facet normal 1 0 -0
    outer loop
      vertex 149.875 15 11.3325
      vertex 149.875 15 11.3542
      vertex 149.875 14.8486 11.1712
    endloop
  endfacet
  facet normal 0 -0.929776 -0.368125
    outer loop
      vertex 142.375 14.8486 7.82882
      vertex 149.875 14.6671 8.28711
      vertex 142.375 14.6671 8.28711
    endloop
  endfacet
  facet normal 0 -0.929776 -0.368125
    outer loop
      vertex 149.875 14.6671 8.28711
      vertex 142.375 14.8486 7.82882
      vertex 149.875 14.8486 7.82882
    endloop
  endfacet
  facet normal 0 -0.876307 -0.481753
    outer loop
      vertex 142.375 15 7.55334
      vertex 149.875 14.8486 7.82882
      vertex 142.375 14.8486 7.82882
    endloop
  endfacet
  facet normal 0 -0.876307 -0.481753
    outer loop
      vertex 149.875 14.8486 7.82882
      vertex 142.375 15 7.55334
      vertex 149.875 15 7.55334
    endloop
  endfacet
  facet normal 1 0 0
    outer loop
      vertex 149.875 14.6671 10.7129
      vertex 149.875 15 11.1712
      vertex 149.875 14.8486 11.1712
    endloop
  endfacet
  facet normal 1 0 0
    outer loop
      vertex 149.875 14.5445 10.2355
      vertex 149.875 15 11.1712
      vertex 149.875 14.6671 10.7129
    endloop
  endfacet
  facet normal 1 0 0
    outer loop
      vertex 149.875 15 11.1712
      vertex 149.875 14.6671 8.28711
      vertex 149.875 15 7.55334
    endloop
  endfacet
  facet normal 1 0 0
    outer loop
      vertex 149.875 15 7.55334
      vertex 149.875 14.6671 8.28711
      vertex 149.875 14.8486 7.82882
    endloop
  endfacet
  facet normal 1 0 0
    outer loop
      vertex 149.875 14.4827 9.74645
      vertex 149.875 15 11.1712
      vertex 149.875 14.5445 10.2355
    endloop
  endfacet
  facet normal 1 0 0
    outer loop
      vertex 149.875 15 11.1712
      vertex 149.875 14.5445 8.76453
      vertex 149.875 14.6671 8.28711
    endloop
  endfacet
  facet normal 1 0 0
    outer loop
      vertex 149.875 14.4827 9.25355
      vertex 149.875 15 11.1712
      vertex 149.875 14.4827 9.74645
    endloop
  endfacet
  facet normal 1 0 0
    outer loop
      vertex 149.875 15 11.1712
      vertex 149.875 14.4827 9.25355
      vertex 149.875 14.5445 8.76453
    endloop
  endfacet
  facet normal 1 0 0
    outer loop
      vertex 149.875 15 11.1712
      vertex 149.875 21.8 12
      vertex 149.875 15 12
    endloop
  endfacet
  facet normal 1 0 0
    outer loop
      vertex 149.875 15 7.55334
      vertex 149.875 21.8 12
      vertex 149.875 15 11.1712
    endloop
  endfacet
  facet normal 1 0 0
    outer loop
      vertex 149.875 21.8 12
      vertex 149.875 15 7.55334
      vertex 149.875 21.8 2
    endloop
  endfacet
  facet normal 1 0 0
    outer loop
      vertex 149.875 21.8 2
      vertex 149.875 15 7.55334
      vertex 149.875 15 2
    endloop
  endfacet
  facet normal 1 0 -0
    outer loop
      vertex 149.875 15 11.2965
      vertex 149.875 15 11.3134
      vertex 149.875 14.8486 11.1712
    endloop
  endfacet
  facet normal 1 0 -0
    outer loop
      vertex 149.875 15 11.3796
      vertex 149.875 15 11.4098
      vertex 149.875 14.8486 11.1712
    endloop
  endfacet
  facet normal 0 -0.992115 0.125335
    outer loop
      vertex 142.375 14.4827 9.74645
      vertex 149.875 14.5445 10.2355
      vertex 142.375 14.5445 10.2355
    endloop
  endfacet
  facet normal 0 -0.992115 0.125335
    outer loop
      vertex 149.875 14.5445 10.2355
      vertex 142.375 14.4827 9.74645
      vertex 149.875 14.4827 9.74645
    endloop
  endfacet
  facet normal 0 -0.968583 0.248689
    outer loop
      vertex 142.375 14.5445 10.2355
      vertex 149.875 14.6671 10.7129
      vertex 142.375 14.6671 10.7129
    endloop
  endfacet
  facet normal 0 -0.968583 0.248689
    outer loop
      vertex 149.875 14.6671 10.7129
      vertex 142.375 14.5445 10.2355
      vertex 149.875 14.5445 10.2355
    endloop
  endfacet
  facet normal 0 -0.929776 0.368125
    outer loop
      vertex 142.375 14.6671 10.7129
      vertex 149.875 14.8486 11.1712
      vertex 142.375 14.8486 11.1712
    endloop
  endfacet
  facet normal 0 -0.929776 0.368125
    outer loop
      vertex 149.875 14.8486 11.1712
      vertex 142.375 14.6671 10.7129
      vertex 149.875 14.6671 10.7129
    endloop
  endfacet
  facet normal -1 0 0
    outer loop
      vertex 142.375 14.6671 8.28711
      vertex 142.375 15 7.55334
      vertex 142.375 14.8486 7.82882
    endloop
  endfacet
  facet normal -1 0 0
    outer loop
      vertex 142.375 15 7.55334
      vertex 142.375 14.6671 8.28711
      vertex 142.375 15 11.4467
    endloop
  endfacet
  facet normal -1 0 0
    outer loop
      vertex 142.375 14.6671 10.7129
      vertex 142.375 15 11.4467
      vertex 142.375 14.6671 8.28711
    endloop
  endfacet
  facet normal -1 0 0
    outer loop
      vertex 142.375 15 11.4467
      vertex 142.375 14.6671 10.7129
      vertex 142.375 14.8486 11.1712
    endloop
  endfacet
  facet normal -1 0 0
    outer loop
      vertex 142.375 14.5445 8.76453
      vertex 142.375 14.6671 10.7129
      vertex 142.375 14.6671 8.28711
    endloop
  endfacet
  facet normal -1 0 0
    outer loop
      vertex 142.375 14.5445 8.76453
      vertex 142.375 14.5445 10.2355
      vertex 142.375 14.6671 10.7129
    endloop
  endfacet
  facet normal -1 0 0
    outer loop
      vertex 142.375 14.4827 9.25355
      vertex 142.375 14.5445 10.2355
      vertex 142.375 14.5445 8.76453
    endloop
  endfacet
  facet normal -1 0 0
    outer loop
      vertex 142.375 14.5445 10.2355
      vertex 142.375 14.4827 9.25355
      vertex 142.375 14.4827 9.74645
    endloop
  endfacet
  facet normal -1 0 0
    outer loop
      vertex 142.375 15 7.55334
      vertex 142.375 21.8 2
      vertex 142.375 15 2
    endloop
  endfacet
  facet normal -1 0 0
    outer loop
      vertex 142.375 21.8 2
      vertex 142.375 15 7.55334
      vertex 142.375 21.8 12
    endloop
  endfacet
  facet normal -1 0 0
    outer loop
      vertex 142.375 15 11.4467
      vertex 142.375 21.8 12
      vertex 142.375 15 7.55334
    endloop
  endfacet
  facet normal -1 -0 0
    outer loop
      vertex 142.375 21.8 12
      vertex 142.375 15 11.4467
      vertex 142.375 15 12
    endloop
  endfacet
  facet normal 1 0 -0
    outer loop
      vertex 149.875 15 11.3542
      vertex 149.875 15 11.3796
      vertex 149.875 14.8486 11.1712
    endloop
  endfacet
  facet normal 1 0 -0
    outer loop
      vertex 149.875 15 11.3134
      vertex 149.875 15 11.3325
      vertex 149.875 14.8486 11.1712
    endloop
  endfacet
  facet normal 0 -0.968583 -0.248689
    outer loop
      vertex 142.375 14.6671 8.28711
      vertex 149.875 14.5445 8.76453
      vertex 142.375 14.5445 8.76453
    endloop
  endfacet
  facet normal 0 -0.968583 -0.248689
    outer loop
      vertex 149.875 14.5445 8.76453
      vertex 142.375 14.6671 8.28711
      vertex 149.875 14.6671 8.28711
    endloop
  endfacet
  facet normal 0 -0.992115 -0.125335
    outer loop
      vertex 142.375 14.5445 8.76453
      vertex 149.875 14.4827 9.25355
      vertex 142.375 14.4827 9.25355
    endloop
  endfacet
  facet normal 0 -0.992115 -0.125335
    outer loop
      vertex 149.875 14.4827 9.25355
      vertex 142.375 14.5445 8.76453
      vertex 149.875 14.5445 8.76453
    endloop
  endfacet
  facet normal 0 -0.876308 0.481752
    outer loop
      vertex 142.375 14.8486 11.1712
      vertex 149.875 15 11.4467
      vertex 142.375 15 11.4467
    endloop
  endfacet
  facet normal 0 -0.876308 0.481752
    outer loop
      vertex 149.875 15 11.4467
      vertex 142.375 14.8486 11.1712
      vertex 149.875 14.8486 11.1712
    endloop
  endfacet
  facet normal 1 0 -0
    outer loop
      vertex 149.875 15 11.4098
      vertex 149.875 15 11.4467
      vertex 149.875 14.8486 11.1712
    endloop
  endfacet
  facet normal 1 0 -0
    outer loop
      vertex 149.875 15 11.2812
      vertex 149.875 15 11.2965
      vertex 149.875 14.8486 11.1712
    endloop
  endfacet
  facet normal 1 0 -0
    outer loop
      vertex 149.875 15 11.2673
      vertex 149.875 15 11.2812
      vertex 149.875 14.8486 11.1712
    endloop
  endfacet
  facet normal 0 -1 0
    outer loop
      vertex 142.375 15 2
      vertex 149.875 15 7.55334
      vertex 142.375 15 7.55334
    endloop
  endfacet
  facet normal 0 -1 -0
    outer loop
      vertex 149.875 15 7.55334
      vertex 142.375 15 2
      vertex 149.875 15 2
    endloop
  endfacet
  facet normal 0 -1 0
    outer loop
      vertex 142.375 15 11.4467
      vertex 149.875 15 12
      vertex 142.375 15 12
    endloop
  endfacet
  facet normal 0 -1 -0
    outer loop
      vertex 149.875 15 12
      vertex 142.375 15 11.4467
      vertex 149.875 15 11.4467
    endloop
  endfacet
  facet normal 0 0 0
    outer loop
      vertex 149.875 15 11.3134
      vertex 149.875 15 11.2965
      vertex 149.875 15 11.2812
    endloop
  endfacet
  facet normal 0 0 0
    outer loop
      vertex 149.875 15 11.4467
      vertex 149.875 15 11.4098
      vertex 149.875 15 11.3796
    endloop
  endfacet
  facet normal 0 0 0
    outer loop
      vertex 149.875 15 11.3796
      vertex 149.875 15 11.3542
      vertex 149.875 15 11.3325
    endloop
  endfacet
  facet normal 0 0 0
    outer loop
      vertex 149.875 15 11.3325
      vertex 149.875 15 11.3134
      vertex 149.875 15 11.2812
    endloop
  endfacet
  facet normal 0 0 0
    outer loop
      vertex 149.875 15 11.4467
      vertex 149.875 15 11.3796
      vertex 149.875 15 11.3325
    endloop
  endfacet
  facet normal 0 0 0
    outer loop
      vertex 149.875 15 11.4467
      vertex 149.875 15 11.3325
      vertex 149.875 15 11.2812
    endloop
  endfacet
  facet normal 0 0 0
    outer loop
      vertex 149.875 15 12
      vertex 149.875 15 11.4467
      vertex 149.875 15 11.2812
    endloop
  endfacet
  facet normal 0 0 0
    outer loop
      vertex 149.875 15 11.2812
      vertex 149.875 15 11.2673
      vertex 149.875 15 11.1712
    endloop
  endfacet
  facet normal 0 0 0
    outer loop
      vertex 149.875 15 11.2812
      vertex 149.875 15 11.1712
      vertex 149.875 15 12
    endloop
  endfacet
  facet normal -0 0 1
    outer loop
      vertex 142.375 21.8 12
      vertex 149.875 15 12
      vertex 149.875 21.8 12
    endloop
  endfacet
  facet normal 0 0 1
    outer loop
      vertex 149.875 15 12
      vertex 142.375 21.8 12
      vertex 142.375 15 12
    endloop
  endfacet
  facet normal 0 0 1
    outer loop
      vertex 128.125 45 2
      vertex 123.125 45 2
      vertex 128.125 44.9921 2
    endloop
  endfacet
  facet normal -0 0 1
    outer loop
      vertex 142.375 23.2 2
      vertex 149.875 21.8 2
      vertex 149.875 23.2 2
    endloop
  endfacet
  facet normal 0 0 1
    outer loop
      vertex 149.875 21.8 2
      vertex 142.375 23.2 2
      vertex 142.375 21.8 2
    endloop
  endfacet
  facet normal 0 0 1
    outer loop
      vertex 150.126 44.9921 2
      vertex 153.875 41 2
      vertex 153.843 41.5013 2
    endloop
  endfacet
  facet normal 0 0 1
    outer loop
      vertex 153.875 41 2
      vertex 149.875 23.2 2
      vertex 153.875 4 2
    endloop
  endfacet
  facet normal 0 0 1
    outer loop
      vertex 150.126 44.9921 2
      vertex 153.843 41.5013 2
      vertex 153.749 41.9948 2
    endloop
  endfacet
  facet normal -0 0 1
    outer loop
      vertex 149.875 21.8 2
      vertex 153.875 4 2
      vertex 149.875 23.2 2
    endloop
  endfacet
  facet normal 0 0 1
    outer loop
      vertex 150.126 44.9921 2
      vertex 153.749 41.9948 2
      vertex 153.594 42.4725 2
    endloop
  endfacet
  facet normal -0 0 1
    outer loop
      vertex 149.875 15 2
      vertex 153.875 4 2
      vertex 149.875 21.8 2
    endloop
  endfacet
  facet normal 0 0 1
    outer loop
      vertex 150.126 44.9921 2
      vertex 153.594 42.4725 2
      vertex 153.38 42.927 2
    endloop
  endfacet
  facet normal 0 -0 1
    outer loop
      vertex 150.126 0.00790405 2
      vertex 153.875 4 2
      vertex 149.875 15 2
    endloop
  endfacet
  facet normal 0 0 1
    outer loop
      vertex 150.126 44.9921 2
      vertex 153.38 42.927 2
      vertex 153.111 43.3511 2
    endloop
  endfacet
  facet normal 0 0 1
    outer loop
      vertex 153.875 4 2
      vertex 150.126 0.00790405 2
      vertex 153.843 3.49867 2
    endloop
  endfacet
  facet normal 0 0 1
    outer loop
      vertex 150.126 44.9921 2
      vertex 153.111 43.3511 2
      vertex 152.791 43.7382 2
    endloop
  endfacet
  facet normal 0 0 1
    outer loop
      vertex 153.843 3.49867 2
      vertex 150.126 0.00790405 2
      vertex 153.749 3.00525 2
    endloop
  endfacet
  facet normal 0 0 1
    outer loop
      vertex 150.126 44.9921 2
      vertex 152.791 43.7382 2
      vertex 152.425 44.082 2
    endloop
  endfacet
  facet normal 0 0 1
    outer loop
      vertex 153.749 3.00525 2
      vertex 150.126 0.00790405 2
      vertex 153.594 2.52751 2
    endloop
  endfacet
  facet normal 0 0 1
    outer loop
      vertex 150.126 44.9921 2
      vertex 152.425 44.082 2
      vertex 152.018 44.3773 2
    endloop
  endfacet
  facet normal 0 0 1
    outer loop
      vertex 153.594 2.52751 2
      vertex 150.126 0.00790405 2
      vertex 153.38 2.073 2
    endloop
  endfacet
  facet normal 0 0 1
    outer loop
      vertex 150.126 44.9921 2
      vertex 152.018 44.3773 2
      vertex 151.578 44.6193 2
    endloop
  endfacet
  facet normal 0 0 1
    outer loop
      vertex 153.38 2.073 2
      vertex 150.126 0.00790405 2
      vertex 153.111 1.64886 2
    endloop
  endfacet
  facet normal 0 0 1
    outer loop
      vertex 150.126 44.9921 2
      vertex 151.578 44.6193 2
      vertex 151.111 44.8042 2
    endloop
  endfacet
  facet normal 0 0 1
    outer loop
      vertex 153.111 1.64886 2
      vertex 150.126 0.00790405 2
      vertex 152.791 1.26183 2
    endloop
  endfacet
  facet normal 0 0 1
    outer loop
      vertex 150.126 44.9921 2
      vertex 151.111 44.8042 2
      vertex 150.625 44.9291 2
    endloop
  endfacet
  facet normal 0 0 1
    outer loop
      vertex 152.791 1.26183 2
      vertex 150.126 0.00790405 2
      vertex 152.425 0.917953 2
    endloop
  endfacet
  facet normal 0 0 1
    outer loop
      vertex 153.875 41 2
      vertex 150.126 44.9921 2
      vertex 149.875 30 2
    endloop
  endfacet
  facet normal 0 0 1
    outer loop
      vertex 153.875 41 2
      vertex 149.875 30 2
      vertex 149.875 23.2 2
    endloop
  endfacet
  facet normal 0 0 1
    outer loop
      vertex 152.425 0.917953 2
      vertex 150.126 0.00790405 2
      vertex 152.018 0.622696 2
    endloop
  endfacet
  facet normal 0 0 1
    outer loop
      vertex 150.126 44.9921 2
      vertex 142.375 30 2
      vertex 149.875 30 2
    endloop
  endfacet
  facet normal -0 0 1
    outer loop
      vertex 133.309 24.1566 2
      vertex 142.375 23.2 2
      vertex 142.375 30 2
    endloop
  endfacet
  facet normal -0 -0 1
    outer loop
      vertex 133.484 23.6191 2
      vertex 142.375 23.2 2
      vertex 133.309 24.1566 2
    endloop
  endfacet
  facet normal -0 0 1
    outer loop
      vertex 133.59 21.936 2
      vertex 142.375 21.8 2
      vertex 133.625 22.5 2
    endloop
  endfacet
  facet normal -0 0 1
    outer loop
      vertex 128.125 44.9921 2
      vertex 142.375 30 2
      vertex 150.126 44.9921 2
    endloop
  endfacet
  facet normal 0 0 1
    outer loop
      vertex 142.375 23.2 2
      vertex 133.625 22.5 2
      vertex 142.375 21.8 2
    endloop
  endfacet
  facet normal 0 -0 1
    outer loop
      vertex 133.625 22.5 2
      vertex 142.375 23.2 2
      vertex 133.59 23.064 2
    endloop
  endfacet
  facet normal 0 -0 1
    outer loop
      vertex 133.59 23.064 2
      vertex 142.375 23.2 2
      vertex 133.484 23.6191 2
    endloop
  endfacet
  facet normal 0 0 1
    outer loop
      vertex 142.375 30 2
      vertex 133.068 24.6679 2
      vertex 133.309 24.1566 2
    endloop
  endfacet
  facet normal 0 0 1
    outer loop
      vertex 142.375 30 2
      vertex 132.766 25.145 2
      vertex 133.068 24.6679 2
    endloop
  endfacet
  facet normal 0 0 1
    outer loop
      vertex 142.375 30 2
      vertex 132.405 25.5805 2
      vertex 132.766 25.145 2
    endloop
  endfacet
  facet normal 0 0 1
    outer loop
      vertex 142.375 30 2
      vertex 131.993 25.9673 2
      vertex 132.405 25.5805 2
    endloop
  endfacet
  facet normal 0 0 1
    outer loop
      vertex 142.375 30 2
      vertex 131.536 26.2995 2
      vertex 131.993 25.9673 2
    endloop
  endfacet
  facet normal 0 -0 1
    outer loop
      vertex 130.516 26.7798 2
      vertex 142.375 30 2
      vertex 128.125 44.9921 2
    endloop
  endfacet
  facet normal 0 0 1
    outer loop
      vertex 142.375 30 2
      vertex 131.041 26.5717 2
      vertex 131.536 26.2995 2
    endloop
  endfacet
  facet normal 0 0 1
    outer loop
      vertex 142.375 30 2
      vertex 130.516 26.7798 2
      vertex 131.041 26.5717 2
    endloop
  endfacet
  facet normal 0 0 1
    outer loop
      vertex 130.516 26.7798 2
      vertex 128.125 44.9921 2
      vertex 129.968 26.9203 2
    endloop
  endfacet
  facet normal 0 0 1
    outer loop
      vertex 129.968 26.9203 2
      vertex 128.125 44.9921 2
      vertex 129.408 26.9911 2
    endloop
  endfacet
  facet normal 0 0 1
    outer loop
      vertex 129.408 26.9911 2
      vertex 128.125 44.9921 2
      vertex 129.125 27 2
    endloop
  endfacet
  facet normal 0 0 1
    outer loop
      vertex 123.125 27 2
      vertex 128.125 44.9921 2
      vertex 123.125 45 2
    endloop
  endfacet
  facet normal 0 0 1
    outer loop
      vertex 128.125 44.9921 2
      vertex 123.125 27 2
      vertex 129.125 27 2
    endloop
  endfacet
  facet normal 0 0 1
    outer loop
      vertex 152.018 0.622696 2
      vertex 150.126 0.00790405 2
      vertex 151.578 0.380707 2
    endloop
  endfacet
  facet normal 0 0 1
    outer loop
      vertex 151.578 0.380707 2
      vertex 150.126 0.00790405 2
      vertex 151.111 0.195786 2
    endloop
  endfacet
  facet normal 0 0 1
    outer loop
      vertex 151.111 0.195786 2
      vertex 150.126 0.00790405 2
      vertex 150.625 0.0708618 2
    endloop
  endfacet
  facet normal -0 0 1
    outer loop
      vertex 142.375 15 2
      vertex 150.126 0.00790405 2
      vertex 149.875 15 2
    endloop
  endfacet
  facet normal 0 0 1
    outer loop
      vertex 133.484 21.3809 2
      vertex 142.375 21.8 2
      vertex 133.59 21.936 2
    endloop
  endfacet
  facet normal 0 0 1
    outer loop
      vertex 133.309 20.8434 2
      vertex 142.375 21.8 2
      vertex 133.484 21.3809 2
    endloop
  endfacet
  facet normal 0 0 1
    outer loop
      vertex 142.375 21.8 2
      vertex 133.309 20.8434 2
      vertex 142.375 15 2
    endloop
  endfacet
  facet normal -0 0 1
    outer loop
      vertex 133.068 20.3321 2
      vertex 142.375 15 2
      vertex 133.309 20.8434 2
    endloop
  endfacet
  facet normal -0 0 1
    outer loop
      vertex 132.766 19.855 2
      vertex 142.375 15 2
      vertex 133.068 20.3321 2
    endloop
  endfacet
  facet normal -0 0 1
    outer loop
      vertex 132.405 19.4195 2
      vertex 142.375 15 2
      vertex 132.766 19.855 2
    endloop
  endfacet
  facet normal -0 0 1
    outer loop
      vertex 131.993 19.0327 2
      vertex 142.375 15 2
      vertex 132.405 19.4195 2
    endloop
  endfacet
  facet normal -0 0 1
    outer loop
      vertex 131.536 18.7005 2
      vertex 142.375 15 2
      vertex 131.993 19.0327 2
    endloop
  endfacet
  facet normal -0 0 1
    outer loop
      vertex 131.041 18.4283 2
      vertex 142.375 15 2
      vertex 131.536 18.7005 2
    endloop
  endfacet
  facet normal -0 0 1
    outer loop
      vertex 130.516 18.2202 2
      vertex 142.375 15 2
      vertex 131.041 18.4283 2
    endloop
  endfacet
  facet normal 0 0 1
    outer loop
      vertex 142.375 15 2
      vertex 130.516 18.2202 2
      vertex 128.125 0.00790405 2
    endloop
  endfacet
  facet normal 0 0 1
    outer loop
      vertex 128.125 0.00790405 2
      vertex 130.516 18.2202 2
      vertex 129.968 18.0797 2
    endloop
  endfacet
  facet normal 0 0 1
    outer loop
      vertex 128.125 0.00790405 2
      vertex 129.968 18.0797 2
      vertex 129.408 18.0089 2
    endloop
  endfacet
  facet normal 0 0 1
    outer loop
      vertex 129.125 18 2
      vertex 129.408 18.0089 2
      vertex 129.125 18.0089 2
    endloop
  endfacet
  facet normal 0 0 1
    outer loop
      vertex 128.125 0.00790405 2
      vertex 129.408 18.0089 2
      vertex 129.125 18 2
    endloop
  endfacet
  facet normal 0 0 1
    outer loop
      vertex 142.375 15 2
      vertex 128.125 0.00790405 2
      vertex 150.126 0.00790405 2
    endloop
  endfacet
  facet normal -0 0 1
    outer loop
      vertex 123.125 18 2
      vertex 128.125 0.00790405 2
      vertex 129.125 18 2
    endloop
  endfacet
  facet normal 0 0 1
    outer loop
      vertex 123.125 0 2
      vertex 128.125 0.00790405 2
      vertex 123.125 18 2
    endloop
  endfacet
  facet normal 0 0 1
    outer loop
      vertex 128.125 0.00790405 2
      vertex 123.125 0 2
      vertex 128.125 0 2
    endloop
  endfacet
  facet normal 0 0 1
    outer loop
      vertex 129.408 26.9911 2
      vertex 129.125 27 2
      vertex 129.125 26.9911 2
    endloop
  endfacet
  facet normal 0 1 -0
    outer loop
      vertex 149.875 21.8 2
      vertex 142.375 21.8 12
      vertex 149.875 21.8 12
    endloop
  endfacet
  facet normal 0 1 0
    outer loop
      vertex 142.375 21.8 12
      vertex 149.875 21.8 2
      vertex 142.375 21.8 2
    endloop
  endfacet
  facet normal -1 0 0
    outer loop
      vertex 142.375 30.1514 11.1712
      vertex 142.375 30 11.1712
      vertex 142.375 30 11.2673
    endloop
  endfacet
  facet normal 0 1 -0
    outer loop
      vertex 149.875 30.5173 9.25355
      vertex 142.375 30.5173 9.74645
      vertex 149.875 30.5173 9.74645
    endloop
  endfacet
  facet normal 0 1 0
    outer loop
      vertex 142.375 30.5173 9.74645
      vertex 149.875 30.5173 9.25355
      vertex 142.375 30.5173 9.25355
    endloop
  endfacet
  facet normal -1 0 0
    outer loop
      vertex 142.375 30 11.3542
      vertex 142.375 30.1514 11.1712
      vertex 142.375 30 11.3325
    endloop
  endfacet
  facet normal 0 0.929776 -0.368127
    outer loop
      vertex 149.875 30.1514 7.82882
      vertex 142.375 30.3329 8.28711
      vertex 149.875 30.3329 8.28711
    endloop
  endfacet
  facet normal 0 0.929776 -0.368127
    outer loop
      vertex 142.375 30.3329 8.28711
      vertex 149.875 30.1514 7.82882
      vertex 142.375 30.1514 7.82882
    endloop
  endfacet
  facet normal 0 0.876307 -0.481753
    outer loop
      vertex 149.875 30 7.55334
      vertex 142.375 30.1514 7.82882
      vertex 149.875 30.1514 7.82882
    endloop
  endfacet
  facet normal 0 0.876307 -0.481753
    outer loop
      vertex 142.375 30.1514 7.82882
      vertex 149.875 30 7.55334
      vertex 142.375 30 7.55334
    endloop
  endfacet
  facet normal -1 0 0
    outer loop
      vertex 142.375 23.2 2
      vertex 142.375 30 7.55334
      vertex 142.375 30 2
    endloop
  endfacet
  facet normal -1 0 0
    outer loop
      vertex 142.375 23.2 12
      vertex 142.375 30 7.55334
      vertex 142.375 23.2 2
    endloop
  endfacet
  facet normal -1 0 0
    outer loop
      vertex 142.375 30 7.55334
      vertex 142.375 23.2 12
      vertex 142.375 30 11.1712
    endloop
  endfacet
  facet normal -1 0 0
    outer loop
      vertex 142.375 30 11.1712
      vertex 142.375 23.2 12
      vertex 142.375 30 12
    endloop
  endfacet
  facet normal -1 0 0
    outer loop
      vertex 142.375 30 11.1712
      vertex 142.375 30.5173 9.25355
      vertex 142.375 30.4555 8.76453
    endloop
  endfacet
  facet normal -1 0 0
    outer loop
      vertex 142.375 30.5173 9.25355
      vertex 142.375 30 11.1712
      vertex 142.375 30.5173 9.74645
    endloop
  endfacet
  facet normal -1 0 0
    outer loop
      vertex 142.375 30 11.1712
      vertex 142.375 30.4555 8.76453
      vertex 142.375 30.3329 8.28711
    endloop
  endfacet
  facet normal -1 0 0
    outer loop
      vertex 142.375 30.5173 9.74645
      vertex 142.375 30 11.1712
      vertex 142.375 30.4555 10.2355
    endloop
  endfacet
  facet normal -1 0 0
    outer loop
      vertex 142.375 30 7.55334
      vertex 142.375 30.3329 8.28711
      vertex 142.375 30.1514 7.82882
    endloop
  endfacet
  facet normal -1 0 0
    outer loop
      vertex 142.375 30.4555 10.2355
      vertex 142.375 30 11.1712
      vertex 142.375 30.3329 10.7129
    endloop
  endfacet
  facet normal -1 -0 0
    outer loop
      vertex 142.375 30.3329 8.28711
      vertex 142.375 30 7.55334
      vertex 142.375 30 11.1712
    endloop
  endfacet
  facet normal -1 0 0
    outer loop
      vertex 142.375 30.3329 10.7129
      vertex 142.375 30 11.1712
      vertex 142.375 30.1514 11.1712
    endloop
  endfacet
  facet normal -1 0 0
    outer loop
      vertex 142.375 30 11.3134
      vertex 142.375 30.1514 11.1712
      vertex 142.375 30 11.2965
    endloop
  endfacet
  facet normal -1 0 0
    outer loop
      vertex 142.375 30 11.4098
      vertex 142.375 30.1514 11.1712
      vertex 142.375 30 11.3796
    endloop
  endfacet
  facet normal 0 0.992115 0.125333
    outer loop
      vertex 149.875 30.5173 9.74645
      vertex 142.375 30.4555 10.2355
      vertex 149.875 30.4555 10.2355
    endloop
  endfacet
  facet normal 0 0.992115 0.125333
    outer loop
      vertex 142.375 30.4555 10.2355
      vertex 149.875 30.5173 9.74645
      vertex 142.375 30.5173 9.74645
    endloop
  endfacet
  facet normal 0 0.968584 0.248688
    outer loop
      vertex 149.875 30.4555 10.2355
      vertex 142.375 30.3329 10.7129
      vertex 149.875 30.3329 10.7129
    endloop
  endfacet
  facet normal 0 0.968584 0.248688
    outer loop
      vertex 142.375 30.3329 10.7129
      vertex 149.875 30.4555 10.2355
      vertex 142.375 30.4555 10.2355
    endloop
  endfacet
  facet normal 0 0.929776 0.368127
    outer loop
      vertex 149.875 30.3329 10.7129
      vertex 142.375 30.1514 11.1712
      vertex 149.875 30.1514 11.1712
    endloop
  endfacet
  facet normal 0 0.929776 0.368127
    outer loop
      vertex 142.375 30.1514 11.1712
      vertex 149.875 30.3329 10.7129
      vertex 142.375 30.3329 10.7129
    endloop
  endfacet
  facet normal 1 -0 0
    outer loop
      vertex 149.875 23.2 12
      vertex 149.875 30 11.4467
      vertex 149.875 30 12
    endloop
  endfacet
  facet normal 1 0 0
    outer loop
      vertex 149.875 30 11.4467
      vertex 149.875 23.2 12
      vertex 149.875 30 7.55334
    endloop
  endfacet
  facet normal 1 0 0
    outer loop
      vertex 149.875 23.2 2
      vertex 149.875 30 7.55334
      vertex 149.875 23.2 12
    endloop
  endfacet
  facet normal 1 0 0
    outer loop
      vertex 149.875 30 7.55334
      vertex 149.875 23.2 2
      vertex 149.875 30 2
    endloop
  endfacet
  facet normal 1 0 0
    outer loop
      vertex 149.875 30.4555 10.2355
      vertex 149.875 30.5173 9.25355
      vertex 149.875 30.5173 9.74645
    endloop
  endfacet
  facet normal 1 0 0
    outer loop
      vertex 149.875 30.4555 10.2355
      vertex 149.875 30.4555 8.76453
      vertex 149.875 30.5173 9.25355
    endloop
  endfacet
  facet normal 1 0 0
    outer loop
      vertex 149.875 30.3329 10.7129
      vertex 149.875 30.4555 8.76453
      vertex 149.875 30.4555 10.2355
    endloop
  endfacet
  facet normal 1 0 0
    outer loop
      vertex 149.875 30.3329 10.7129
      vertex 149.875 30.3329 8.28711
      vertex 149.875 30.4555 8.76453
    endloop
  endfacet
  facet normal 1 0 0
    outer loop
      vertex 149.875 30 11.4467
      vertex 149.875 30.3329 10.7129
      vertex 149.875 30.1514 11.1712
    endloop
  endfacet
  facet normal 1 0 0
    outer loop
      vertex 149.875 30.3329 10.7129
      vertex 149.875 30 11.4467
      vertex 149.875 30.3329 8.28711
    endloop
  endfacet
  facet normal 1 0 0
    outer loop
      vertex 149.875 30 7.55334
      vertex 149.875 30.3329 8.28711
      vertex 149.875 30 11.4467
    endloop
  endfacet
  facet normal 1 0 0
    outer loop
      vertex 149.875 30.3329 8.28711
      vertex 149.875 30 7.55334
      vertex 149.875 30.1514 7.82882
    endloop
  endfacet
  facet normal -1 0 0
    outer loop
      vertex 142.375 30 11.3796
      vertex 142.375 30.1514 11.1712
      vertex 142.375 30 11.3542
    endloop
  endfacet
  facet normal -1 0 0
    outer loop
      vertex 142.375 30 11.3325
      vertex 142.375 30.1514 11.1712
      vertex 142.375 30 11.3134
    endloop
  endfacet
  facet normal 0 0.968584 -0.248688
    outer loop
      vertex 149.875 30.3329 8.28711
      vertex 142.375 30.4555 8.76453
      vertex 149.875 30.4555 8.76453
    endloop
  endfacet
  facet normal 0 0.968584 -0.248688
    outer loop
      vertex 142.375 30.4555 8.76453
      vertex 149.875 30.3329 8.28711
      vertex 142.375 30.3329 8.28711
    endloop
  endfacet
  facet normal 0 0.992115 -0.125333
    outer loop
      vertex 149.875 30.4555 8.76453
      vertex 142.375 30.5173 9.25355
      vertex 149.875 30.5173 9.25355
    endloop
  endfacet
  facet normal 0 0.992115 -0.125333
    outer loop
      vertex 142.375 30.5173 9.25355
      vertex 149.875 30.4555 8.76453
      vertex 142.375 30.4555 8.76453
    endloop
  endfacet
  facet normal 0 0.876308 0.481752
    outer loop
      vertex 149.875 30.1514 11.1712
      vertex 142.375 30 11.4467
      vertex 149.875 30 11.4467
    endloop
  endfacet
  facet normal 0 0.876308 0.481752
    outer loop
      vertex 142.375 30 11.4467
      vertex 149.875 30.1514 11.1712
      vertex 142.375 30.1514 11.1712
    endloop
  endfacet
  facet normal -1 0 0
    outer loop
      vertex 142.375 30 11.4467
      vertex 142.375 30.1514 11.1712
      vertex 142.375 30 11.4098
    endloop
  endfacet
  facet normal -1 0 0
    outer loop
      vertex 142.375 30 11.2965
      vertex 142.375 30.1514 11.1712
      vertex 142.375 30 11.2812
    endloop
  endfacet
  facet normal -1 0 0
    outer loop
      vertex 142.375 30 11.2812
      vertex 142.375 30.1514 11.1712
      vertex 142.375 30 11.2673
    endloop
  endfacet
  facet normal 0 1 -0
    outer loop
      vertex 149.875 30 2
      vertex 142.375 30 7.55334
      vertex 149.875 30 7.55334
    endloop
  endfacet
  facet normal 0 1 0
    outer loop
      vertex 142.375 30 7.55334
      vertex 149.875 30 2
      vertex 142.375 30 2
    endloop
  endfacet
  facet normal 0 1 -0
    outer loop
      vertex 149.875 30 11.4467
      vertex 142.375 30 12
      vertex 149.875 30 12
    endloop
  endfacet
  facet normal 0 1 0
    outer loop
      vertex 142.375 30 12
      vertex 149.875 30 11.4467
      vertex 142.375 30 11.4467
    endloop
  endfacet
  facet normal 0 0 0
    outer loop
      vertex 142.375 30 11.2812
      vertex 142.375 30 11.2673
      vertex 142.375 30 11.1712
    endloop
  endfacet
  facet normal 0 0 0
    outer loop
      vertex 142.375 30 11.3542
      vertex 142.375 30 11.3325
      vertex 142.375 30 11.3134
    endloop
  endfacet
  facet normal 0 0 0
    outer loop
      vertex 142.375 30 11.3542
      vertex 142.375 30 11.3134
      vertex 142.375 30 11.2965
    endloop
  endfacet
  facet normal 0 0 0
    outer loop
      vertex 142.375 30 11.2812
      vertex 142.375 30 11.1712
      vertex 142.375 30 12
    endloop
  endfacet
  facet normal 0 0 0
    outer loop
      vertex 142.375 30 11.4467
      vertex 142.375 30 11.4098
      vertex 142.375 30 11.3796
    endloop
  endfacet
  facet normal 0 0 0
    outer loop
      vertex 142.375 30 11.4467
      vertex 142.375 30 11.3796
      vertex 142.375 30 11.3542
    endloop
  endfacet
  facet normal 0 0 0
    outer loop
      vertex 142.375 30 11.2965
      vertex 142.375 30 11.2812
      vertex 142.375 30 12
    endloop
  endfacet
  facet normal 0 0 0
    outer loop
      vertex 142.375 30 12
      vertex 142.375 30 11.4467
      vertex 142.375 30 11.3542
    endloop
  endfacet
  facet normal 0 0 0
    outer loop
      vertex 142.375 30 12
      vertex 142.375 30 11.3542
      vertex 142.375 30 11.2965
    endloop
  endfacet
  facet normal -0 0 1
    outer loop
      vertex 142.375 30 12
      vertex 149.875 23.2 12
      vertex 149.875 30 12
    endloop
  endfacet
  facet normal 0 0 1
    outer loop
      vertex 149.875 23.2 12
      vertex 142.375 30 12
      vertex 142.375 23.2 12
    endloop
  endfacet
  facet normal 0 -1 0
    outer loop
      vertex 142.375 23.2 2
      vertex 149.875 23.2 12
      vertex 142.375 23.2 12
    endloop
  endfacet
  facet normal 0 -1 -0
    outer loop
      vertex 149.875 23.2 12
      vertex 142.375 23.2 2
      vertex 149.875 23.2 2
    endloop
  endfacet
  facet normal 0.998025 0.0628189 0
    outer loop
      vertex 153.875 41 2
      vertex 153.843 41.5013 0
      vertex 153.843 41.5013 2
    endloop
  endfacet
  facet normal 0.998025 0.0628189 0
    outer loop
      vertex 153.843 41.5013 0
      vertex 153.875 41 2
      vertex 153.875 41 0
    endloop
  endfacet
  facet normal 0.951056 0.309019 0
    outer loop
      vertex 153.749 41.9948 2
      vertex 153.594 42.4725 0
      vertex 153.594 42.4725 2
    endloop
  endfacet
  facet normal 0.951056 0.309019 0
    outer loop
      vertex 153.594 42.4725 0
      vertex 153.749 41.9948 2
      vertex 153.749 41.9948 0
    endloop
  endfacet
  facet normal 0.904824 0.425787 0
    outer loop
      vertex 153.594 42.4725 2
      vertex 153.38 42.927 0
      vertex 153.38 42.927 2
    endloop
  endfacet
  facet normal 0.904824 0.425787 0
    outer loop
      vertex 153.38 42.927 0
      vertex 153.594 42.4725 2
      vertex 153.594 42.4725 0
    endloop
  endfacet
  facet normal 0.982291 0.187363 0
    outer loop
      vertex 153.843 41.5013 2
      vertex 153.749 41.9948 0
      vertex 153.749 41.9948 2
    endloop
  endfacet
  facet normal 0.982291 0.187363 0
    outer loop
      vertex 153.749 41.9948 0
      vertex 153.843 41.5013 2
      vertex 153.843 41.5013 0
    endloop
  endfacet
  facet normal 0.998025 -0.0628189 0
    outer loop
      vertex 153.843 3.49867 2
      vertex 153.875 4 0
      vertex 153.875 4 2
    endloop
  endfacet
  facet normal 0.998025 -0.0628189 0
    outer loop
      vertex 153.875 4 0
      vertex 153.843 3.49867 2
      vertex 153.843 3.49867 0
    endloop
  endfacet
  facet normal 0 -1 0
    outer loop
      vertex 128.125 0.00790405 1
      vertex 150.126 0.00790405 2
      vertex 128.125 0.00790405 2
    endloop
  endfacet
  facet normal 0 -1 0
    outer loop
      vertex 150.126 0.00790405 0
      vertex 128.125 0.00790405 1
      vertex 128.125 0.00790405 0
    endloop
  endfacet
  facet normal 0 -1 0
    outer loop
      vertex 128.125 0.00790405 1
      vertex 150.126 0.00790405 0
      vertex 150.126 0.00790405 2
    endloop
  endfacet
  facet normal 1 -0 0
    outer loop
      vertex 153.875 4 2
      vertex 153.875 41 0
      vertex 153.875 41 2
    endloop
  endfacet
  facet normal 1 0 0
    outer loop
      vertex 153.875 41 0
      vertex 153.875 4 2
      vertex 153.875 4 0
    endloop
  endfacet
  facet normal 0.844326 -0.535829 0
    outer loop
      vertex 153.111 1.64886 2
      vertex 153.38 2.073 0
      vertex 153.38 2.073 2
    endloop
  endfacet
  facet normal 0.844326 -0.535829 0
    outer loop
      vertex 153.38 2.073 0
      vertex 153.111 1.64886 2
      vertex 153.111 1.64886 0
    endloop
  endfacet
  facet normal 0.951056 -0.309019 0
    outer loop
      vertex 153.594 2.52751 2
      vertex 153.749 3.00525 0
      vertex 153.749 3.00525 2
    endloop
  endfacet
  facet normal 0.951056 -0.309019 0
    outer loop
      vertex 153.749 3.00525 0
      vertex 153.594 2.52751 2
      vertex 153.594 2.52751 0
    endloop
  endfacet
  facet normal -1 0 0
    outer loop
      vertex 123.125 0 1
      vertex 123.125 18 2
      vertex 123.125 18 1
    endloop
  endfacet
  facet normal -1 -0 0
    outer loop
      vertex 123.125 18 2
      vertex 123.125 0 1
      vertex 123.125 0 2
    endloop
  endfacet
  facet normal -1 0 0
    outer loop
      vertex 123.125 27 1
      vertex 123.125 45 2
      vertex 123.125 45 1
    endloop
  endfacet
  facet normal -1 -0 0
    outer loop
      vertex 123.125 45 2
      vertex 123.125 27 1
      vertex 123.125 27 2
    endloop
  endfacet
  facet normal 0 1 0
    outer loop
      vertex 150.126 44.9921 2
      vertex 128.125 44.9921 1
      vertex 128.125 44.9921 2
    endloop
  endfacet
  facet normal 0 1 -0
    outer loop
      vertex 150.126 44.9921 0
      vertex 128.125 44.9921 1
      vertex 150.126 44.9921 2
    endloop
  endfacet
  facet normal 0 1 0
    outer loop
      vertex 128.125 44.9921 1
      vertex 150.126 44.9921 0
      vertex 128.125 44.9921 0
    endloop
  endfacet
  facet normal 0.684553 0.728963 -0
    outer loop
      vertex 152.791 43.7382 0
      vertex 152.425 44.082 2
      vertex 152.791 43.7382 2
    endloop
  endfacet
  facet normal 0.684553 0.728963 0
    outer loop
      vertex 152.425 44.082 2
      vertex 152.791 43.7382 0
      vertex 152.425 44.082 0
    endloop
  endfacet
  facet normal 0.587785 -0.809017 0
    outer loop
      vertex 152.018 0.622696 0
      vertex 152.425 0.917953 2
      vertex 152.018 0.622696 2
    endloop
  endfacet
  facet normal 0.587785 -0.809017 0
    outer loop
      vertex 152.425 0.917953 2
      vertex 152.018 0.622696 0
      vertex 152.425 0.917953 0
    endloop
  endfacet
  facet normal 0.904824 -0.425787 0
    outer loop
      vertex 153.38 2.073 2
      vertex 153.594 2.52751 0
      vertex 153.594 2.52751 2
    endloop
  endfacet
  facet normal 0.904824 -0.425787 0
    outer loop
      vertex 153.594 2.52751 0
      vertex 153.38 2.073 2
      vertex 153.38 2.073 0
    endloop
  endfacet
  facet normal 0.982291 -0.187363 0
    outer loop
      vertex 153.749 3.00525 2
      vertex 153.843 3.49867 0
      vertex 153.843 3.49867 2
    endloop
  endfacet
  facet normal 0.982291 -0.187363 0
    outer loop
      vertex 153.843 3.49867 0
      vertex 153.749 3.00525 2
      vertex 153.749 3.00525 0
    endloop
  endfacet
  facet normal 0 0 -1
    outer loop
      vertex 150.126 0.00790405 0
      vertex 153.875 4 0
      vertex 153.843 3.49867 0
    endloop
  endfacet
  facet normal 0 0 -1
    outer loop
      vertex 153.875 4 0
      vertex 133.625 22.5 0
      vertex 153.875 41 0
    endloop
  endfacet
  facet normal 0 0 -1
    outer loop
      vertex 150.126 0.00790405 0
      vertex 153.843 3.49867 0
      vertex 153.749 3.00525 0
    endloop
  endfacet
  facet normal 0 0 -1
    outer loop
      vertex 133.59 23.064 0
      vertex 153.875 41 0
      vertex 133.625 22.5 0
    endloop
  endfacet
  facet normal 0 0 -1
    outer loop
      vertex 150.126 0.00790405 0
      vertex 153.749 3.00525 0
      vertex 153.594 2.52751 0
    endloop
  endfacet
  facet normal 0 0 -1
    outer loop
      vertex 133.484 23.6191 0
      vertex 153.875 41 0
      vertex 133.59 23.064 0
    endloop
  endfacet
  facet normal 0 0 -1
    outer loop
      vertex 150.126 0.00790405 0
      vertex 153.594 2.52751 0
      vertex 153.38 2.073 0
    endloop
  endfacet
  facet normal 0 0 -1
    outer loop
      vertex 133.309 24.1566 0
      vertex 153.875 41 0
      vertex 133.484 23.6191 0
    endloop
  endfacet
  facet normal 0 0 -1
    outer loop
      vertex 150.126 0.00790405 0
      vertex 153.38 2.073 0
      vertex 153.111 1.64886 0
    endloop
  endfacet
  facet normal 0 0 -1
    outer loop
      vertex 133.068 24.6679 0
      vertex 153.875 41 0
      vertex 133.309 24.1566 0
    endloop
  endfacet
  facet normal 0 0 -1
    outer loop
      vertex 150.126 0.00790405 0
      vertex 153.111 1.64886 0
      vertex 152.791 1.26183 0
    endloop
  endfacet
  facet normal 0 0 -1
    outer loop
      vertex 132.766 25.145 0
      vertex 153.875 41 0
      vertex 133.068 24.6679 0
    endloop
  endfacet
  facet normal 0 0 -1
    outer loop
      vertex 150.126 0.00790405 0
      vertex 152.791 1.26183 0
      vertex 152.425 0.917953 0
    endloop
  endfacet
  facet normal 0 0 -1
    outer loop
      vertex 132.405 25.5805 0
      vertex 153.875 41 0
      vertex 132.766 25.145 0
    endloop
  endfacet
  facet normal 0 0 -1
    outer loop
      vertex 150.126 0.00790405 0
      vertex 152.425 0.917953 0
      vertex 152.018 0.622696 0
    endloop
  endfacet
  facet normal 0 0 -1
    outer loop
      vertex 153.875 41 0
      vertex 150.126 44.9921 0
      vertex 153.843 41.5013 0
    endloop
  endfacet
  facet normal 0 0 -1
    outer loop
      vertex 150.126 0.00790405 0
      vertex 152.018 0.622696 0
      vertex 151.578 0.380707 0
    endloop
  endfacet
  facet normal 0 0 -1
    outer loop
      vertex 153.843 41.5013 0
      vertex 150.126 44.9921 0
      vertex 153.749 41.9948 0
    endloop
  endfacet
  facet normal 0 0 -1
    outer loop
      vertex 150.126 0.00790405 0
      vertex 151.578 0.380707 0
      vertex 151.111 0.195786 0
    endloop
  endfacet
  facet normal 0 0 -1
    outer loop
      vertex 153.749 41.9948 0
      vertex 150.126 44.9921 0
      vertex 153.594 42.4725 0
    endloop
  endfacet
  facet normal 0 0 -1
    outer loop
      vertex 150.126 0.00790405 0
      vertex 151.111 0.195786 0
      vertex 150.625 0.0708618 0
    endloop
  endfacet
  facet normal 0 0 -1
    outer loop
      vertex 153.38 42.927 0
      vertex 150.126 44.9921 0
      vertex 153.111 43.3511 0
    endloop
  endfacet
  facet normal 0 0 -1
    outer loop
      vertex 132.405 19.4195 0
      vertex 153.875 4 0
      vertex 150.126 0.00790405 0
    endloop
  endfacet
  facet normal 0 0 -1
    outer loop
      vertex 153.111 43.3511 0
      vertex 150.126 44.9921 0
      vertex 152.791 43.7382 0
    endloop
  endfacet
  facet normal 0 0 -1
    outer loop
      vertex 152.425 44.082 0
      vertex 150.126 44.9921 0
      vertex 152.018 44.3773 0
    endloop
  endfacet
  facet normal 0 0 -1
    outer loop
      vertex 153.875 4 0
      vertex 133.59 21.936 0
      vertex 133.625 22.5 0
    endloop
  endfacet
  facet normal 0 0 -1
    outer loop
      vertex 153.875 4 0
      vertex 133.484 21.3809 0
      vertex 133.59 21.936 0
    endloop
  endfacet
  facet normal 0 0 -1
    outer loop
      vertex 153.875 4 0
      vertex 133.309 20.8434 0
      vertex 133.484 21.3809 0
    endloop
  endfacet
  facet normal 0 0 -1
    outer loop
      vertex 153.875 4 0
      vertex 133.068 20.3321 0
      vertex 133.309 20.8434 0
    endloop
  endfacet
  facet normal 0 0 -1
    outer loop
      vertex 153.875 4 0
      vertex 132.766 19.855 0
      vertex 133.068 20.3321 0
    endloop
  endfacet
  facet normal 0 0 -1
    outer loop
      vertex 153.875 4 0
      vertex 132.405 19.4195 0
      vertex 132.766 19.855 0
    endloop
  endfacet
  facet normal 0 0 -1
    outer loop
      vertex 150.126 0.00790405 0
      vertex 131.993 19.0327 0
      vertex 132.405 19.4195 0
    endloop
  endfacet
  facet normal 0 0 -1
    outer loop
      vertex 150.126 0.00790405 0
      vertex 131.536 18.7005 0
      vertex 131.993 19.0327 0
    endloop
  endfacet
  facet normal 0 0 -1
    outer loop
      vertex 128.125 0.00790405 0
      vertex 131.536 18.7005 0
      vertex 150.126 0.00790405 0
    endloop
  endfacet
  facet normal 0 0 -1
    outer loop
      vertex 131.536 18.7005 0
      vertex 128.125 0.00790405 0
      vertex 131.041 18.4283 0
    endloop
  endfacet
  facet normal 0 0 -1
    outer loop
      vertex 131.041 18.4283 0
      vertex 128.125 0.00790405 0
      vertex 130.516 18.2202 0
    endloop
  endfacet
  facet normal 0 0 -1
    outer loop
      vertex 130.516 18.2202 0
      vertex 128.125 0.00790405 0
      vertex 129.968 18.0797 0
    endloop
  endfacet
  facet normal 0 0 -1
    outer loop
      vertex 129.968 18.0797 0
      vertex 128.125 0.00790405 0
      vertex 129.408 18.0089 0
    endloop
  endfacet
  facet normal 0 0 -1
    outer loop
      vertex 129.408 18.0089 0
      vertex 128.125 0.00790405 0
      vertex 129.125 18 0
    endloop
  endfacet
  facet normal -0 0 -1
    outer loop
      vertex 129.125 18 0
      vertex 128.125 0.00790405 0
      vertex 128.125 18 0
    endloop
  endfacet
  facet normal 0 0 -1
    outer loop
      vertex 152.018 44.3773 0
      vertex 150.126 44.9921 0
      vertex 151.578 44.6193 0
    endloop
  endfacet
  facet normal 0 0 -1
    outer loop
      vertex 151.578 44.6193 0
      vertex 150.126 44.9921 0
      vertex 151.111 44.8042 0
    endloop
  endfacet
  facet normal 0 0 -1
    outer loop
      vertex 151.111 44.8042 0
      vertex 150.126 44.9921 0
      vertex 150.625 44.9291 0
    endloop
  endfacet
  facet normal 0 0 -1
    outer loop
      vertex 152.791 43.7382 0
      vertex 150.126 44.9921 0
      vertex 152.425 44.082 0
    endloop
  endfacet
  facet normal 0 0 -1
    outer loop
      vertex 153.594 42.4725 0
      vertex 150.126 44.9921 0
      vertex 153.38 42.927 0
    endloop
  endfacet
  facet normal -0 0 -1
    outer loop
      vertex 153.875 41 0
      vertex 132.405 25.5805 0
      vertex 150.126 44.9921 0
    endloop
  endfacet
  facet normal 0 0 -1
    outer loop
      vertex 131.993 25.9673 0
      vertex 150.126 44.9921 0
      vertex 132.405 25.5805 0
    endloop
  endfacet
  facet normal 0 0 -1
    outer loop
      vertex 131.536 26.2995 0
      vertex 150.126 44.9921 0
      vertex 131.993 25.9673 0
    endloop
  endfacet
  facet normal 0 0 -1
    outer loop
      vertex 128.125 44.9921 0
      vertex 131.536 26.2995 0
      vertex 131.041 26.5717 0
    endloop
  endfacet
  facet normal 0 0 -1
    outer loop
      vertex 128.125 44.9921 0
      vertex 131.041 26.5717 0
      vertex 130.516 26.7798 0
    endloop
  endfacet
  facet normal 0 0 -1
    outer loop
      vertex 128.125 44.9921 0
      vertex 130.516 26.7798 0
      vertex 129.968 26.9203 0
    endloop
  endfacet
  facet normal 0 0 -1
    outer loop
      vertex 128.125 44.9921 0
      vertex 129.968 26.9203 0
      vertex 129.408 26.9911 0
    endloop
  endfacet
  facet normal 0 0 -1
    outer loop
      vertex 129.125 27 0
      vertex 129.408 26.9911 0
      vertex 129.125 26.9911 0
    endloop
  endfacet
  facet normal 0 0 -1
    outer loop
      vertex 128.125 44.9921 0
      vertex 129.408 26.9911 0
      vertex 129.125 27 0
    endloop
  endfacet
  facet normal 0 0 -1
    outer loop
      vertex 128.125 44.9921 0
      vertex 129.125 27 0
      vertex 128.125 27 0
    endloop
  endfacet
  facet normal 0 0 -1
    outer loop
      vertex 131.536 26.2995 0
      vertex 128.125 44.9921 0
      vertex 150.126 44.9921 0
    endloop
  endfacet
  facet normal -0 0 -1
    outer loop
      vertex 129.408 18.0089 0
      vertex 129.125 18 0
      vertex 129.125 18.0089 0
    endloop
  endfacet
  facet normal 0.125336 -0.992114 0
    outer loop
      vertex 150.126 0.00790405 0
      vertex 150.625 0.0708618 2
      vertex 150.126 0.00790405 2
    endloop
  endfacet
  facet normal 0.125336 -0.992114 0
    outer loop
      vertex 150.625 0.0708618 2
      vertex 150.126 0.00790405 0
      vertex 150.625 0.0708618 0
    endloop
  endfacet
  facet normal 0.368126 -0.929776 0
    outer loop
      vertex 151.111 0.195786 0
      vertex 151.578 0.380707 2
      vertex 151.111 0.195786 2
    endloop
  endfacet
  facet normal 0.368126 -0.929776 0
    outer loop
      vertex 151.578 0.380707 2
      vertex 151.111 0.195786 0
      vertex 151.578 0.380707 0
    endloop
  endfacet
  facet normal 0.684553 -0.728963 0
    outer loop
      vertex 152.425 0.917953 0
      vertex 152.791 1.26183 2
      vertex 152.425 0.917953 2
    endloop
  endfacet
  facet normal 0.684553 -0.728963 0
    outer loop
      vertex 152.791 1.26183 2
      vertex 152.425 0.917953 0
      vertex 152.791 1.26183 0
    endloop
  endfacet
  facet normal 0.248692 0.968583 -0
    outer loop
      vertex 151.111 44.8042 0
      vertex 150.625 44.9291 2
      vertex 151.111 44.8042 2
    endloop
  endfacet
  facet normal 0.248692 0.968583 0
    outer loop
      vertex 150.625 44.9291 2
      vertex 151.111 44.8042 0
      vertex 150.625 44.9291 0
    endloop
  endfacet
  facet normal 0.125336 0.992114 -0
    outer loop
      vertex 150.625 44.9291 0
      vertex 150.126 44.9921 2
      vertex 150.625 44.9291 2
    endloop
  endfacet
  facet normal 0.125336 0.992114 0
    outer loop
      vertex 150.126 44.9921 2
      vertex 150.625 44.9291 0
      vertex 150.126 44.9921 0
    endloop
  endfacet
  facet normal 0.587785 0.809017 -0
    outer loop
      vertex 152.425 44.082 0
      vertex 152.018 44.3773 2
      vertex 152.425 44.082 2
    endloop
  endfacet
  facet normal 0.587785 0.809017 0
    outer loop
      vertex 152.018 44.3773 2
      vertex 152.425 44.082 0
      vertex 152.018 44.3773 0
    endloop
  endfacet
  facet normal 0.77051 0.637428 0
    outer loop
      vertex 153.111 43.3511 2
      vertex 152.791 43.7382 0
      vertex 152.791 43.7382 2
    endloop
  endfacet
  facet normal 0.77051 0.637428 0
    outer loop
      vertex 152.791 43.7382 0
      vertex 153.111 43.3511 2
      vertex 153.111 43.3511 0
    endloop
  endfacet
  facet normal 0.844326 0.535829 0
    outer loop
      vertex 153.38 42.927 2
      vertex 153.111 43.3511 0
      vertex 153.111 43.3511 2
    endloop
  endfacet
  facet normal 0.844326 0.535829 0
    outer loop
      vertex 153.111 43.3511 0
      vertex 153.38 42.927 2
      vertex 153.38 42.927 0
    endloop
  endfacet
  facet normal 0.248692 -0.968583 0
    outer loop
      vertex 150.625 0.0708618 0
      vertex 151.111 0.195786 2
      vertex 150.625 0.0708618 2
    endloop
  endfacet
  facet normal 0.248692 -0.968583 0
    outer loop
      vertex 151.111 0.195786 2
      vertex 150.625 0.0708618 0
      vertex 151.111 0.195786 0
    endloop
  endfacet
  facet normal 0.481746 -0.876311 0
    outer loop
      vertex 151.578 0.380707 0
      vertex 152.018 0.622696 2
      vertex 151.578 0.380707 2
    endloop
  endfacet
  facet normal 0.481746 -0.876311 0
    outer loop
      vertex 152.018 0.622696 2
      vertex 151.578 0.380707 0
      vertex 152.018 0.622696 0
    endloop
  endfacet
  facet normal 0.77051 -0.637428 0
    outer loop
      vertex 152.791 1.26183 2
      vertex 153.111 1.64886 0
      vertex 153.111 1.64886 2
    endloop
  endfacet
  facet normal 0.77051 -0.637428 0
    outer loop
      vertex 153.111 1.64886 0
      vertex 152.791 1.26183 2
      vertex 152.791 1.26183 0
    endloop
  endfacet
  facet normal 0.368126 0.929776 -0
    outer loop
      vertex 151.578 44.6193 0
      vertex 151.111 44.8042 2
      vertex 151.578 44.6193 2
    endloop
  endfacet
  facet normal 0.368126 0.929776 0
    outer loop
      vertex 151.111 44.8042 2
      vertex 151.578 44.6193 0
      vertex 151.111 44.8042 0
    endloop
  endfacet
  facet normal 0.481746 0.876311 -0
    outer loop
      vertex 152.018 44.3773 0
      vertex 151.578 44.6193 2
      vertex 152.018 44.3773 2
    endloop
  endfacet
  facet normal 0.481746 0.876311 0
    outer loop
      vertex 151.578 44.6193 2
      vertex 152.018 44.3773 0
      vertex 151.578 44.6193 0
    endloop
  endfacet
  facet normal 1 -0 0
    outer loop
      vertex 128.125 0 2
      vertex 128.125 0.00790405 1
      vertex 128.125 0.00790405 2
    endloop
  endfacet
  facet normal 1 0 0
    outer loop
      vertex 128.125 0.00790405 1
      vertex 128.125 0 2
      vertex 128.125 0 1
    endloop
  endfacet
  facet normal 1 -0 0
    outer loop
      vertex 128.125 44.9921 2
      vertex 128.125 45 1
      vertex 128.125 45 2
    endloop
  endfacet
  facet normal 1 0 0
    outer loop
      vertex 128.125 45 1
      vertex 128.125 44.9921 2
      vertex 128.125 44.9921 1
    endloop
  endfacet
  facet normal -1 0 0
    outer loop
      vertex 128.125 0.00790405 0
      vertex 128.125 18 1
      vertex 128.125 18 0
    endloop
  endfacet
  facet normal -1 -0 0
    outer loop
      vertex 128.125 18 1
      vertex 128.125 0.00790405 0
      vertex 128.125 0.00790405 1
    endloop
  endfacet
  facet normal -1 0 0
    outer loop
      vertex 128.125 27 0
      vertex 128.125 44.9921 1
      vertex 128.125 44.9921 0
    endloop
  endfacet
  facet normal -1 -0 0
    outer loop
      vertex 128.125 44.9921 1
      vertex 128.125 27 0
      vertex 128.125 27 1
    endloop
  endfacet
  facet normal 0 1 -0
    outer loop
      vertex 128.125 45 1
      vertex 123.125 45 2
      vertex 128.125 45 2
    endloop
  endfacet
  facet normal 0 1 0
    outer loop
      vertex 123.125 45 2
      vertex 128.125 45 1
      vertex 123.125 45 1
    endloop
  endfacet
  facet normal 0 -1 0
    outer loop
      vertex 123.125 0 1
      vertex 128.125 0 2
      vertex 123.125 0 2
    endloop
  endfacet
  facet normal 0 -1 -0
    outer loop
      vertex 128.125 0 2
      vertex 123.125 0 1
      vertex 128.125 0 1
    endloop
  endfacet
  facet normal 0 0 -1
    outer loop
      vertex 123.125 27 1
      vertex 128.125 44.9921 1
      vertex 128.125 27 1
    endloop
  endfacet
  facet normal 0 0 -1
    outer loop
      vertex 123.125 45 1
      vertex 128.125 44.9921 1
      vertex 123.125 27 1
    endloop
  endfacet
  facet normal 0 0 -1
    outer loop
      vertex 128.125 44.9921 1
      vertex 123.125 45 1
      vertex 128.125 45 1
    endloop
  endfacet
  facet normal 0 0 -1
    outer loop
      vertex 123.125 0 1
      vertex 128.125 0.00790405 1
      vertex 128.125 0 1
    endloop
  endfacet
  facet normal -0 0 -1
    outer loop
      vertex 128.125 0.00790405 1
      vertex 123.125 0 1
      vertex 128.125 18 1
    endloop
  endfacet
  facet normal -0 0 -1
    outer loop
      vertex 128.125 18 1
      vertex 123.125 0 1
      vertex 123.125 18 1
    endloop
  endfacet
  facet normal -1 0 0
    outer loop
      vertex 129.125 26.9911 0
      vertex 129.125 27 2
      vertex 129.125 27 0
    endloop
  endfacet
  facet normal -1 -0 0
    outer loop
      vertex 129.125 27 2
      vertex 129.125 26.9911 0
      vertex 129.125 26.9911 2
    endloop
  endfacet
  facet normal -1 0 0
    outer loop
      vertex 129.125 18 0
      vertex 129.125 18.0089 2
      vertex 129.125 18.0089 0
    endloop
  endfacet
  facet normal -1 -0 0
    outer loop
      vertex 129.125 18.0089 2
      vertex 129.125 18 0
      vertex 129.125 18 2
    endloop
  endfacet
  facet normal 0 1 0
    outer loop
      vertex 129.125 18 2
      vertex 128.125 18 1
      vertex 123.125 18 2
    endloop
  endfacet
  facet normal 0 1 -0
    outer loop
      vertex 129.125 18 0
      vertex 128.125 18 1
      vertex 129.125 18 2
    endloop
  endfacet
  facet normal 0 1 0
    outer loop
      vertex 128.125 18 1
      vertex 129.125 18 0
      vertex 128.125 18 0
    endloop
  endfacet
  facet normal 0 1 0
    outer loop
      vertex 123.125 18 2
      vertex 128.125 18 1
      vertex 123.125 18 1
    endloop
  endfacet
  facet normal 0 -1 0
    outer loop
      vertex 128.125 27 1
      vertex 123.125 27 2
      vertex 123.125 27 1
    endloop
  endfacet
  facet normal 0 -1 0
    outer loop
      vertex 123.125 27 2
      vertex 128.125 27 1
      vertex 129.125 27 2
    endloop
  endfacet
  facet normal 0 -1 0
    outer loop
      vertex 129.125 27 0
      vertex 128.125 27 1
      vertex 128.125 27 0
    endloop
  endfacet
  facet normal 0 -1 0
    outer loop
      vertex 128.125 27 1
      vertex 129.125 27 0
      vertex 129.125 27 2
    endloop
  endfacet
  facet normal -0.998026 -0.0628048 0
    outer loop
      vertex 133.625 22.5 0
      vertex 133.59 23.064 2
      vertex 133.59 23.064 0
    endloop
  endfacet
  facet normal -0.998026 -0.0628048 0
    outer loop
      vertex 133.59 23.064 2
      vertex 133.625 22.5 0
      vertex 133.625 22.5 2
    endloop
  endfacet
  facet normal -0.587789 -0.809014 0
    outer loop
      vertex 131.536 26.2995 0
      vertex 131.993 25.9673 2
      vertex 131.536 26.2995 2
    endloop
  endfacet
  facet normal -0.587789 -0.809014 -0
    outer loop
      vertex 131.993 25.9673 2
      vertex 131.536 26.2995 0
      vertex 131.993 25.9673 0
    endloop
  endfacet
  facet normal -0.844334 -0.535818 0
    outer loop
      vertex 133.068 24.6679 0
      vertex 132.766 25.145 2
      vertex 132.766 25.145 0
    endloop
  endfacet
  facet normal -0.844334 -0.535818 0
    outer loop
      vertex 132.766 25.145 2
      vertex 133.068 24.6679 0
      vertex 133.068 24.6679 2
    endloop
  endfacet
  facet normal -0.770516 -0.63742 0
    outer loop
      vertex 132.766 25.145 0
      vertex 132.405 25.5805 2
      vertex 132.405 25.5805 0
    endloop
  endfacet
  facet normal -0.770516 -0.63742 0
    outer loop
      vertex 132.405 25.5805 2
      vertex 132.766 25.145 0
      vertex 132.766 25.145 2
    endloop
  endfacet
  facet normal -0.248687 -0.968584 0
    outer loop
      vertex 129.968 26.9203 0
      vertex 130.516 26.7798 2
      vertex 129.968 26.9203 2
    endloop
  endfacet
  facet normal -0.248687 -0.968584 -0
    outer loop
      vertex 130.516 26.7798 2
      vertex 129.968 26.9203 0
      vertex 130.516 26.7798 0
    endloop
  endfacet
  facet normal -0.125334 -0.992115 0
    outer loop
      vertex 129.408 26.9911 0
      vertex 129.968 26.9203 2
      vertex 129.408 26.9911 2
    endloop
  endfacet
  facet normal -0.125334 -0.992115 -0
    outer loop
      vertex 129.968 26.9203 2
      vertex 129.408 26.9911 0
      vertex 129.968 26.9203 0
    endloop
  endfacet
  facet normal -0.481745 -0.876311 0
    outer loop
      vertex 131.041 26.5717 0
      vertex 131.536 26.2995 2
      vertex 131.041 26.5717 2
    endloop
  endfacet
  facet normal -0.481745 -0.876311 -0
    outer loop
      vertex 131.536 26.2995 2
      vertex 131.041 26.5717 0
      vertex 131.536 26.2995 0
    endloop
  endfacet
  facet normal -0.844335 0.535816 0
    outer loop
      vertex 132.766 19.855 0
      vertex 133.068 20.3321 2
      vertex 133.068 20.3321 0
    endloop
  endfacet
  facet normal -0.844335 0.535816 0
    outer loop
      vertex 133.068 20.3321 2
      vertex 132.766 19.855 0
      vertex 132.766 19.855 2
    endloop
  endfacet
  facet normal -0.998026 0.0628048 0
    outer loop
      vertex 133.59 21.936 0
      vertex 133.625 22.5 2
      vertex 133.625 22.5 0
    endloop
  endfacet
  facet normal -0.998026 0.0628048 0
    outer loop
      vertex 133.625 22.5 2
      vertex 133.59 21.936 0
      vertex 133.59 21.936 2
    endloop
  endfacet
  facet normal -0.248687 0.968584 0
    outer loop
      vertex 130.516 18.2202 0
      vertex 129.968 18.0797 2
      vertex 130.516 18.2202 2
    endloop
  endfacet
  facet normal -0.248687 0.968584 0
    outer loop
      vertex 129.968 18.0797 2
      vertex 130.516 18.2202 0
      vertex 129.968 18.0797 0
    endloop
  endfacet
  facet normal -0.951053 -0.309029 0
    outer loop
      vertex 133.484 23.6191 0
      vertex 133.309 24.1566 2
      vertex 133.309 24.1566 0
    endloop
  endfacet
  facet normal -0.951053 -0.309029 0
    outer loop
      vertex 133.309 24.1566 2
      vertex 133.484 23.6191 0
      vertex 133.484 23.6191 2
    endloop
  endfacet
  facet normal -0.982291 -0.187362 0
    outer loop
      vertex 133.59 23.064 0
      vertex 133.484 23.6191 2
      vertex 133.484 23.6191 0
    endloop
  endfacet
  facet normal -0.982291 -0.187362 0
    outer loop
      vertex 133.484 23.6191 2
      vertex 133.59 23.064 0
      vertex 133.59 23.064 2
    endloop
  endfacet
  facet normal -0.904827 -0.42578 0
    outer loop
      vertex 133.309 24.1566 0
      vertex 133.068 24.6679 2
      vertex 133.068 24.6679 0
    endloop
  endfacet
  facet normal -0.904827 -0.42578 0
    outer loop
      vertex 133.068 24.6679 2
      vertex 133.309 24.1566 0
      vertex 133.309 24.1566 2
    endloop
  endfacet
  facet normal -0.684541 -0.728974 0
    outer loop
      vertex 131.993 25.9673 0
      vertex 132.405 25.5805 2
      vertex 131.993 25.9673 2
    endloop
  endfacet
  facet normal -0.684541 -0.728974 -0
    outer loop
      vertex 132.405 25.5805 2
      vertex 131.993 25.9673 0
      vertex 132.405 25.5805 0
    endloop
  endfacet
  facet normal -0.368133 -0.929773 0
    outer loop
      vertex 130.516 26.7798 0
      vertex 131.041 26.5717 2
      vertex 130.516 26.7798 2
    endloop
  endfacet
  facet normal -0.368133 -0.929773 -0
    outer loop
      vertex 131.041 26.5717 2
      vertex 130.516 26.7798 0
      vertex 131.041 26.5717 0
    endloop
  endfacet
  facet normal -0.982291 0.187361 0
    outer loop
      vertex 133.484 21.3809 0
      vertex 133.59 21.936 2
      vertex 133.59 21.936 0
    endloop
  endfacet
  facet normal -0.982291 0.187361 0
    outer loop
      vertex 133.59 21.936 2
      vertex 133.484 21.3809 0
      vertex 133.484 21.3809 2
    endloop
  endfacet
  facet normal -0.481745 0.876311 0
    outer loop
      vertex 131.536 18.7005 0
      vertex 131.041 18.4283 2
      vertex 131.536 18.7005 2
    endloop
  endfacet
  facet normal -0.481745 0.876311 0
    outer loop
      vertex 131.041 18.4283 2
      vertex 131.536 18.7005 0
      vertex 131.041 18.4283 0
    endloop
  endfacet
  facet normal -0.36813 0.929774 0
    outer loop
      vertex 131.041 18.4283 0
      vertex 130.516 18.2202 2
      vertex 131.041 18.4283 2
    endloop
  endfacet
  facet normal -0.36813 0.929774 0
    outer loop
      vertex 130.516 18.2202 2
      vertex 131.041 18.4283 0
      vertex 130.516 18.2202 0
    endloop
  endfacet
  facet normal 0 -1 0
    outer loop
      vertex 129.125 26.9911 0
      vertex 129.408 26.9911 2
      vertex 129.125 26.9911 2
    endloop
  endfacet
  facet normal 0 -1 -0
    outer loop
      vertex 129.408 26.9911 2
      vertex 129.125 26.9911 0
      vertex 129.408 26.9911 0
    endloop
  endfacet
  facet normal -0.951053 0.309029 0
    outer loop
      vertex 133.309 20.8434 0
      vertex 133.484 21.3809 2
      vertex 133.484 21.3809 0
    endloop
  endfacet
  facet normal -0.951053 0.309029 0
    outer loop
      vertex 133.484 21.3809 2
      vertex 133.309 20.8434 0
      vertex 133.309 20.8434 2
    endloop
  endfacet
  facet normal -0.904826 0.425781 0
    outer loop
      vertex 133.068 20.3321 0
      vertex 133.309 20.8434 2
      vertex 133.309 20.8434 0
    endloop
  endfacet
  facet normal -0.904826 0.425781 0
    outer loop
      vertex 133.309 20.8434 2
      vertex 133.068 20.3321 0
      vertex 133.068 20.3321 2
    endloop
  endfacet
  facet normal 0 1 -0
    outer loop
      vertex 129.408 18.0089 0
      vertex 129.125 18.0089 2
      vertex 129.408 18.0089 2
    endloop
  endfacet
  facet normal 0 1 0
    outer loop
      vertex 129.125 18.0089 2
      vertex 129.408 18.0089 0
      vertex 129.125 18.0089 0
    endloop
  endfacet
  facet normal -0.770516 0.63742 0
    outer loop
      vertex 132.405 19.4195 0
      vertex 132.766 19.855 2
      vertex 132.766 19.855 0
    endloop
  endfacet
  facet normal -0.770516 0.63742 0
    outer loop
      vertex 132.766 19.855 2
      vertex 132.405 19.4195 0
      vertex 132.405 19.4195 2
    endloop
  endfacet
  facet normal -0.587789 0.809014 0
    outer loop
      vertex 131.993 19.0327 0
      vertex 131.536 18.7005 2
      vertex 131.993 19.0327 2
    endloop
  endfacet
  facet normal -0.587789 0.809014 0
    outer loop
      vertex 131.536 18.7005 2
      vertex 131.993 19.0327 0
      vertex 131.536 18.7005 0
    endloop
  endfacet
  facet normal -0.125334 0.992115 0
    outer loop
      vertex 129.968 18.0797 0
      vertex 129.408 18.0089 2
      vertex 129.968 18.0797 2
    endloop
  endfacet
  facet normal -0.125334 0.992115 0
    outer loop
      vertex 129.408 18.0089 2
      vertex 129.968 18.0797 0
      vertex 129.408 18.0089 0
    endloop
  endfacet
  facet normal -0.684541 0.728974 0
    outer loop
      vertex 132.405 19.4195 0
      vertex 131.993 19.0327 2
      vertex 132.405 19.4195 2
    endloop
  endfacet
  facet normal -0.684541 0.728974 0
    outer loop
      vertex 131.993 19.0327 2
      vertex 132.405 19.4195 0
      vertex 131.993 19.0327 0
    endloop
  endfacet
endsolid OpenSCAD_Model
